<?xml version="1.0" standalone="no"?>
<!DOCTYPE svg PUBLIC "-//W3C//DTD SVG 20010904//EN"
 "http://www.w3.org/TR/2001/REC-SVG-20010904/DTD/svg10.dtd">
<svg version="1.0" xmlns="http://www.w3.org/2000/svg"
 width="512.000000pt" height="512.000000pt" viewBox="0 0 512.000000 512.000000"
 preserveAspectRatio="xMidYMid meet">

<g transform="translate(0.000000,512.000000) scale(0.100000,-0.100000)"
fill="#000000" stroke="none">
<path d="M1080 5115 c-8 -2 -49 -9 -90 -15 -232 -38 -459 -157 -636 -334 -169
-170 -279 -370 -330 -606 -18 -81 -19 -159 -19 -1595 0 -1638 -3 -1556 56
-1737 58 -179 155 -335 293 -474 139 -138 295 -235 474 -293 181 -59 99 -56
1737 -56 1435 0 1514 1 1595 19 482 105 845 476 941 961 21 104 21 3046 0
3150 -95 479 -440 838 -921 958 -84 21 -94 21 -1585 23 -825 1 -1507 1 -1515
-1z m3030 -417 c220 -66 367 -172 481 -346 49 -75 78 -141 107 -247 16 -55 17
-189 17 -1545 0 -1620 4 -1506 -55 -1662 -66 -177 -261 -372 -438 -438 -157
-59 -36 -55 -1617 -58 -1552 -3 -1532 -4 -1676 47 -202 72 -398 259 -469 449
-59 156 -55 42 -55 1662 0 1620 -4 1506 55 1662 70 186 263 374 458 445 144
53 89 51 1667 50 1341 -2 1475 -4 1525 -19z"/>
<path d="M3881 4203 c-88 -31 -161 -136 -161 -233 0 -132 118 -250 250 -250
60 0 130 30 175 75 188 188 -12 497 -264 408z"/>
<path d="M2340 3836 c-299 -54 -541 -181 -729 -382 -164 -176 -266 -378 -322
-644 -30 -140 -32 -374 -5 -500 58 -267 167 -471 356 -661 190 -191 403 -307
672 -365 117 -26 380 -25 498 0 266 57 471 167 661 356 153 151 253 308 319
506 51 150 64 235 64 404 -1 167 -19 279 -69 435 -141 432 -486 738 -945 840
-102 23 -398 29 -500 11z m445 -406 c434 -113 726 -540 665 -975 -71 -508
-468 -825 -983 -783 -350 28 -646 262 -756 598 -174 529 145 1071 692 1176 98
19 279 11 382 -16z"/>
</g>
</svg>
